# xmcd
#
# Track frame offsets:
#	150
#	29835
#	48972
#	68028
#	107051
#	120664
#	127829
#	142285
#	169717
#	185931
#	200277
#	224095
#
# Disc length: 3292 seconds
#
# Revision: 1
# Processed by: cddbd v1.4PL0 Copyright (c) Steve Scherf et al.
# Submitted via: CDmax 1.8
#
DISCID=bf0cda0c
DTITLE=commander cody - live at gilley's
DYEAR=1982
DGENRE=Country
TTITLE0=it should've been me
TTITLE1=hot rod lincoln
TTITLE2=down to seeds and stems
TTITLE3=beat me daddy, eight to the bar
TTITLE4=two tripple cheese
TTITLE5=rock that boogie
TTITLE6=all tore up
TTITLE7=jukebox jury
TTITLE8=rockabilly funeral
TTITLE9=go to hell
TTITLE10=going to new jersey
TTITLE11=let it rock
EXTD=
EXTT0=
EXTT1=
EXTT2=
EXTT3=
EXTT4=
EXTT5=
EXTT6=
EXTT7=
EXTT8=
EXTT9=
EXTT10=
EXTT11=
PLAYORDER=
